<?xml version="1.0" standalone="no"?>
<!DOCTYPE svg PUBLIC "-//W3C//DTD SVG 20010904//EN"
 "http://www.w3.org/TR/2001/REC-SVG-20010904/DTD/svg10.dtd">
<svg version="1.0" xmlns="http://www.w3.org/2000/svg"
 width="512.000000pt" height="512.000000pt" viewBox="0 0 512.000000 512.000000"
 preserveAspectRatio="xMidYMid meet">
<metadata>
Created by potrace 1.14, written by Peter Selinger 2001-2017
</metadata>
<g transform="translate(0.000000,512.000000) scale(0.100000,-0.100000)"
fill="#000000" stroke="none">
<path d="M0 2560 l0 -2560 2560 0 2560 0 0 2560 0 2560 -2560 0 -2560 0 0
-2560z m1825 1084 c147 -30 177 -39 220 -68 28 -19 71 -43 96 -53 30 -11 75
-45 125 -95 142 -137 167 -173 204 -288 l33 -103 -24 -18 c-13 -10 -49 -28
-79 -39 -30 -11 -68 -27 -85 -36 -27 -14 -35 -13 -85 3 -53 18 -56 20 -90 90
-44 91 -158 224 -213 251 -224 108 -238 112 -363 112 -107 0 -197 -15 -239
-39 -16 -10 -64 -30 -105 -46 -42 -16 -91 -44 -115 -65 -22 -20 -57 -49 -77
-64 -21 -16 -52 -51 -68 -80 -17 -28 -46 -72 -64 -98 -23 -32 -39 -71 -51
-125 -9 -43 -26 -109 -38 -148 -16 -54 -21 -97 -22 -185 0 -103 5 -134 44
-292 37 -152 48 -182 76 -215 17 -21 39 -52 48 -69 23 -46 131 -145 184 -171
26 -13 57 -32 69 -44 38 -36 110 -50 279 -56 205 -7 285 5 357 54 28 20 74 46
102 58 34 15 61 36 79 62 14 21 40 46 56 56 24 14 35 34 57 100 15 45 35 98
45 119 21 42 17 49 -51 73 -34 12 -98 15 -319 15 -268 0 -277 1 -316 23 -38
21 -40 25 -43 75 -4 72 21 155 55 182 26 20 32 21 482 18 515 -3 507 -2 529
-76 8 -28 12 -171 12 -483 0 -498 3 -475 -74 -510 -27 -12 -64 -19 -107 -19
-62 0 -68 2 -85 28 -15 21 -19 45 -19 117 1 84 3 96 42 180 40 84 41 90 25
108 -13 15 -25 17 -62 12 -25 -4 -53 -11 -62 -16 -19 -10 -51 -68 -61 -110 -4
-15 -57 -76 -121 -140 -112 -113 -115 -115 -212 -153 -55 -20 -117 -45 -139
-54 -32 -14 -76 -17 -230 -17 l-190 0 -60 31 c-33 18 -92 41 -131 53 -39 12
-88 34 -108 50 -20 16 -58 43 -84 60 -58 37 -180 179 -222 258 -17 32 -41 73
-55 91 -14 20 -33 76 -50 145 -14 62 -35 137 -47 167 -20 50 -22 74 -22 260
-1 204 -1 205 31 300 17 52 37 122 44 155 14 68 30 105 54 125 9 8 33 46 52
84 63 126 226 291 335 339 32 14 75 39 95 56 32 25 60 35 168 56 306 62 327
62 590 9z m2728 -15 c54 -28 67 -50 67 -111 0 -66 -9 -89 -53 -135 l-31 -33
-542 0 -541 0 -39 -26 c-66 -44 -64 -31 -64 -336 l0 -278 43 -22 c41 -23 48
-23 483 -28 534 -6 489 8 482 -148 -7 -160 39 -146 -486 -152 -419 -5 -439 -6
-477 -26 l-40 -21 -3 -385 -2 -385 -41 -47 -41 -46 -70 0 c-70 0 -71 0 -114
44 l-44 43 0 1020 c0 965 1 1021 18 1036 51 47 45 46 780 47 495 0 700 -3 715
-11z"/>
</g>
</svg>
